<?xml version="1.0" encoding="utf-8"?>
<!-- Generator: Adobe Illustrator 24.2.1, SVG Export Plug-In . SVG Version: 6.00 Build 0)  -->
<svg version="1.1" id="Layer_1" xmlns="http://www.w3.org/2000/svg" xmlns:xlink="http://www.w3.org/1999/xlink" x="0px" y="0px"
	 viewBox="0 0 1942.9 1942.9" style="enable-background:new 0 0 1942.9 1942.9;" xml:space="preserve">
<style type="text/css">
	.st0{fill:#808080;}
	.st1{fill:#FF073A;}
</style>
<g>
	<path class="st0" d="M1001.1,554.6c-14.3-7.6-26.4-7.8-29.2-7.8c-10.2,0.1-20.3,2.8-29.2,7.8l-219.9,127l837.4,483.5l249.1,143.8
		v-254.1c0-20.8-11.1-40-29.1-50.4C1341.1,749.8,1022.5,566,1001.1,554.6z M162.8,1472.1l779.4,450c18.1,10.5,40.5,10.5,58.6,0
		l681.9-393.7l-249.2-143.8l-462.1,266.8l-837.9-483.8v254C133.5,1442.4,144.7,1461.7,162.8,1472.1z"/>
	<path class="st1" d="M941.9,1388.4c14.3,7.6,26.4,7.8,29.2,7.8c10.2-0.1,20.3-2.8,29.2-7.8l219.9-127L382.8,777.9L133.6,634v254.1
		c0,20.8,11.1,40,29.1,50.4C601.9,1193.1,920.5,1377,941.9,1388.4z"/>
	<path class="st1" d="M1809.4,521.4v254L971.5,291.6L509.4,558.4L260.3,414.6L942.2,20.9c18.1-10.5,40.5-10.5,58.6,0l779.4,450
		C1798.3,481.3,1809.4,500.6,1809.4,521.4z"/>
</g>
</svg>
