<?xml version="1.0" encoding="utf-8"?>
<!-- Generator: Adobe Illustrator 24.2.1, SVG Export Plug-In . SVG Version: 6.00 Build 0)  -->
<svg version="1.1" id="Layer_1" xmlns="http://www.w3.org/2000/svg" xmlns:xlink="http://www.w3.org/1999/xlink" x="0px" y="0px"
	 viewBox="0 0 1661 1900" style="enable-background:new 0 0 1661 1900;" xml:space="preserve">
<style type="text/css">
	.st0{fill:#FFFFFF;}
	.st1{fill:#808080;}
	.st2{fill:#2ECC40;}
</style>
<rect class="st0" width="1661" height="1900"/>
<path class="st1" d="M858.4,557.5c-13.4-7.2-24.9-7.4-27.5-7.4c-9.6,0.1-19.1,2.7-27.5,7.4L596.4,677l788.5,455.3l234.6,135.4
	v-239.2c0-19.6-10.5-37.7-27.4-47.5C1178.5,741.3,878.5,568.2,858.4,557.5z M69,1421.4l733.9,423.7c17.1,9.8,38.1,9.8,55.2,0
	l642.1-370.7L1265.5,1339l-435.1,251.2l-789-455.5v239.2C41.4,1393.5,52,1411.6,69,1421.4z"/>
<path class="st2" d="M802.6,1342.6c13.4,7.2,24.9,7.4,27.5,7.4c9.6-0.1,19.1-2.7,27.5-7.4l207.1-119.6L276.1,767.7L41.5,632.3v239.2
	c0,19.6,10.5,37.7,27.4,47.5C482.5,1158.7,782.5,1331.8,802.6,1342.6z"/>
<path class="st2" d="M1619.5,526.2v239.2l-789-455.5L395.4,561L160.8,425.6L803,54.9c17.1-9.8,38.1-9.8,55.2,0L1592,478.6
	C1609,488.4,1619.5,506.6,1619.5,526.2z"/>
</svg>
