<?xml version="1.0" encoding="utf-8"?>
<!-- Generator: Adobe Illustrator 24.2.1, SVG Export Plug-In . SVG Version: 6.00 Build 0)  -->
<svg version="1.1" id="Layer_1" xmlns="http://www.w3.org/2000/svg" xmlns:xlink="http://www.w3.org/1999/xlink" x="0px" y="0px"
	 viewBox="0 0 1578.1 1805" style="enable-background:new 0 0 1578.1 1805;" xml:space="preserve">
<style type="text/css">
	.st0{fill:#808080;}
	.st1{fill:#FF073A;}
</style>
<path class="st0" d="M815.6,529.6c-12.8-6.8-23.7-7-26.1-7c-9.1,0.1-18.1,2.5-26.1,7L566.6,643.1l749.1,432.5l222.9,128.7V977.1
	c0-18.6-9.9-35.8-26-45.1C1119.6,704.2,834.6,539.8,815.6,529.6z M65.6,1350.3l697.2,402.5c16.2,9.4,36.2,9.4,52.4,0l610-352.2
	L1202.3,1272L789,1510.7L39.4,1077.9v227.2C39.5,1323.8,49.4,1341,65.6,1350.3z"/>
<path class="st1" d="M762.6,1275.4c12.8,6.8,23.7,7,26.1,7c9.1-0.1,18.1-2.5,26.1-7l196.7-113.6L262.4,729.3L39.5,600.6v227.3
	c0,18.6,9.9,35.8,26,45.1C458.5,1100.8,743.5,1265.2,762.6,1275.4z"/>
<path class="st1" d="M1538.6,499.9v227.2L789,294.4L375.7,532.9L152.9,404.3L762.9,52.1c16.2-9.4,36.2-9.4,52.4,0l697.1,402.5
	C1528.6,464,1538.6,481.3,1538.6,499.9z"/>
</svg>
