<svg id="Layer_1" data-name="Layer 1" xmlns="http://www.w3.org/2000/svg" viewBox="0 0 1661.01 1900"><defs><style>.cls-1{fill:#fff;}</style></defs><path class="cls-1" d="M858.4,557.45c-13.44-7.17-24.9-7.36-27.46-7.36a57.92,57.92,0,0,0-27.48,7.36L596.36,677l788.55,455.27,234.59,135.44V1028.51a54.94,54.94,0,0,0-27.41-47.5C1178.49,741.27,878.48,568.16,858.4,557.45ZM69,1421.39l733.9,423.7a55.18,55.18,0,0,0,55.16,0l642.08-370.69L1265.51,1339l-435.1,251.19-789-455.53v239.15A55,55,0,0,0,69,1421.39Z"/><path class="cls-1" d="M802.6,1342.55c13.44,7.17,24.9,7.36,27.46,7.36a57.92,57.92,0,0,0,27.48-7.36L1064.64,1223,276.14,767.7,41.52,632.26V871.49A55,55,0,0,0,68.93,919C482.5,1158.72,782.51,1331.84,802.6,1342.55Z"/><path class="cls-1" d="M1619.47,526.23V765.38l-789-455.53L395.4,561,160.83,425.6,803,54.89a55.18,55.18,0,0,1,55.16,0L1592,478.59A55,55,0,0,1,1619.47,526.23Z"/></svg>