<?xml version="1.0" encoding="utf-8"?>
<!-- Generator: Adobe Illustrator 24.2.1, SVG Export Plug-In . SVG Version: 6.00 Build 0)  -->
<svg version="1.1" id="Layer_1" xmlns="http://www.w3.org/2000/svg" xmlns:xlink="http://www.w3.org/1999/xlink" x="0px" y="0px"
	 viewBox="0 0 492.6 492.6" style="enable-background:new 0 0 492.6 492.6;" xml:space="preserve">
<style type="text/css">
	.st0{fill:#39FF14;}
	.st1{fill:#FFFFFF;}
</style>
<g>
	<path d="M387.2,105.4C349.6,67.7,299.5,47,246.3,47S143,67.7,105.4,105.4C67.7,143,47,193.1,47,246.3c0,53.2,20.7,103.3,58.4,140.9
		c37.6,37.6,87.7,58.4,140.9,58.4s103.3-20.7,140.9-58.4c37.6-37.6,58.4-87.7,58.4-140.9C445.6,193.1,424.9,143,387.2,105.4z"/>
	<path class="st0" d="M246.3,0C110.3,0,0,110.3,0,246.3s110.3,246.3,246.3,246.3c136,0,246.3-110.3,246.3-246.3S382.3,0,246.3,0z
		 M246.3,445.6c-53.2,0-103.3-20.7-140.9-58.4C67.7,349.6,47,299.5,47,246.3c0-53.2,20.7-103.3,58.4-140.9
		C143,67.7,193.1,47,246.3,47s103.3,20.7,140.9,58.4c37.6,37.6,58.4,87.7,58.4,140.9c0,53.2-20.7,103.3-58.4,140.9
		C349.6,424.9,299.5,445.6,246.3,445.6z"/>
</g>
<g>
	<path class="st1" d="M241.3,311.9c1.5,0.8,3.2,1.2,4.9,1.2c1.7,0,3.4-0.4,4.9-1.2l36.9-20l-140.6-76.1l-41.8-22.6v40
		c0,3.3,1.9,6.3,4.9,8C184.2,281.2,237.7,310.1,241.3,311.9z"/>
	<path class="st1" d="M387,175.5v40l-140.7-76.2l-77.6,42l-41.8-22.6l114.5-62c3-1.7,6.8-1.7,9.8,0l130.9,70.8
		C385.1,169.2,387,172.2,387,175.5z"/>
	<path class="st1" d="M387,175.5v40l-140.7-76.2l-77.6,42l-41.8-22.6l114.5-62c3-1.7,6.8-1.7,9.8,0l130.9,70.8
		C385.1,169.2,387,172.2,387,175.5z M251.3,180.7c-1.5-0.8-3.2-1.2-4.9-1.3c-1.7,0-3.4,0.4-4.9,1.2l-36.9,20l140.6,76.2l41.8,22.6
		v-40c0-3.3-1.9-6.3-4.9-8C308.3,211.4,254.9,182.5,251.3,180.7z M110.5,325.1l130.9,70.8c3,1.7,6.8,1.7,9.8,0l114.5-62l-41.8-22.6
		l-77.6,42l-140.7-76.2v40C105.6,320.4,107.5,323.5,110.5,325.1L110.5,325.1z M241.3,311.9c1.5,0.8,3.2,1.2,4.9,1.2
		c1.7,0,3.4-0.4,4.9-1.2l36.9-20l-140.6-76.1l-41.8-22.6v40c0,3.3,1.9,6.3,4.9,8C184.2,281.2,237.7,310.1,241.3,311.9z"/>
</g>
</svg>
