<?xml version="1.0" encoding="utf-8"?>
<!-- Generator: Adobe Illustrator 24.2.1, SVG Export Plug-In . SVG Version: 6.00 Build 0)  -->
<svg version="1.1" id="Layer_1" xmlns="http://www.w3.org/2000/svg" xmlns:xlink="http://www.w3.org/1999/xlink" x="0px" y="0px"
	 viewBox="0 0 2149.4 492.6" style="enable-background:new 0 0 2149.4 492.6;" xml:space="preserve">
<style type="text/css">
	.st0{fill:#39FF14;}
	.st1{fill:#FFFFFF;}
</style>
<g>
	<path d="M387.2,105.4C349.6,67.7,299.5,47,246.3,47S143,67.7,105.4,105.4C67.7,143,47,193.1,47,246.3s20.7,103.3,58.4,140.9
		c37.6,37.6,87.7,58.4,140.9,58.4s103.3-20.7,140.9-58.4c37.6-37.6,58.4-87.7,58.4-140.9C445.6,193.1,424.9,143,387.2,105.4z"/>
	<path class="st0" d="M246.3,0C110.3,0,0,110.3,0,246.3s110.3,246.3,246.3,246.3s246.3-110.3,246.3-246.3S382.3,0,246.3,0z
		 M246.3,445.6c-53.2,0-103.3-20.7-140.9-58.4C67.7,349.6,47,299.5,47,246.3S67.7,143,105.4,105.4C143,67.7,193.1,47,246.3,47
		s103.3,20.7,140.9,58.4c37.6,37.6,58.4,87.7,58.4,140.9s-20.7,103.3-58.4,140.9C349.6,424.9,299.5,445.6,246.3,445.6z"/>
</g>
<g>
	<path class="st1" d="M241.3,311.9c1.5,0.8,3.2,1.2,4.9,1.2s3.4-0.4,4.9-1.2l36.9-20l-140.6-76.1l-41.8-22.6v40c0,3.3,1.9,6.3,4.9,8
		C184.2,281.2,237.7,310.1,241.3,311.9z"/>
	<path class="st1" d="M387,175.5v40l-140.7-76.2l-77.6,42l-41.8-22.6l114.5-62c3-1.7,6.8-1.7,9.8,0l130.9,70.8
		C385.1,169.2,387,172.2,387,175.5z"/>
	<path class="st1" d="M387,175.5v40l-140.7-76.2l-77.6,42l-41.8-22.6l114.5-62c3-1.7,6.8-1.7,9.8,0l130.9,70.8
		C385.1,169.2,387,172.2,387,175.5z M251.3,180.7c-1.5-0.8-3.2-1.2-4.9-1.3c-1.7,0-3.4,0.4-4.9,1.2l-36.9,20l140.6,76.2l41.8,22.6
		v-40c0-3.3-1.9-6.3-4.9-8C308.3,211.4,254.9,182.5,251.3,180.7z M110.5,325.1l130.9,70.8c3,1.7,6.8,1.7,9.8,0l114.5-62l-41.8-22.6
		l-77.6,42l-140.7-76.2v40C105.6,320.4,107.5,323.5,110.5,325.1L110.5,325.1z M241.3,311.9c1.5,0.8,3.2,1.2,4.9,1.2s3.4-0.4,4.9-1.2
		l36.9-20l-140.6-76.1l-41.8-22.6v40c0,3.3,1.9,6.3,4.9,8C184.2,281.2,237.7,310.1,241.3,311.9z"/>
</g>
<g>
	<path class="st1" d="M569.8,314.6h62.9c-0.5,34.6,17.8,54,47,54c28.2,0,45-19.3,45-40.1c0-18.8-9.9-30.2-30.2-40.6l-51-26.7
		c-41.6-21.8-69.8-54.9-69.8-97.5c0-58.9,45.5-100.5,106.9-100.5c64.3,0,106.9,40.6,106.9,108.9h-62.9c-1-31.7-17.3-48-43.6-48
		c-28.7,0-40.1,18.8-40.1,36.6c0,19.8,12.4,29.7,33.7,40.6l53.5,27.7c39.1,20.3,63.9,53.5,63.9,94.5c0,55.4-43.6,105.9-112.4,105.9
		C610.4,429.5,568.3,380,569.8,314.6z"/>
	<path class="st1" d="M1058.9,129h-78.7v295.5h-64.4V129h-78.7V68.1h221.8V129z"/>
	<path class="st1" d="M1249,343.8h-96l-19.8,80.7h-65.3L1159,68.1h84.1l91.1,356.4h-65.3L1249,343.8z M1234.1,282.9l-33.2-133.6
		l-33.2,133.6H1234.1z"/>
	<path class="st1" d="M1610.3,318.1c0,61.4-40.6,106.4-117.8,106.4h-98V68.1h109.9c64.3,0,99,35.6,99,95c0,35.6-14.4,63.4-38.1,75.2
		C1591.5,250.8,1610.3,271.6,1610.3,318.1z M1458.8,129v80.2h39.6c26.7,0,41.1-15.8,41.1-42.1c0-27.2-14.4-38.1-47.5-38.1H1458.8z
		 M1546.5,315.1c0-30.2-17.3-45-48-45h-39.6v93.6h39.1C1529.1,363.6,1546.5,345.3,1546.5,315.1z"/>
	<path class="st1" d="M1687.5,68.1h64.3v295.5h139.1v60.9h-203.4V68.1z"/>
	<path class="st1" d="M2009.8,129v80.7H2139v60.9h-129.2v93.1h139.6v60.9h-203.9V68.1h203.9V129H2009.8z"/>
</g>
</svg>
