<?xml version="1.0" encoding="utf-8"?>
<!-- Generator: Adobe Illustrator 24.2.1, SVG Export Plug-In . SVG Version: 6.00 Build 0)  -->
<svg version="1.1" id="Layer_1" xmlns="http://www.w3.org/2000/svg" xmlns:xlink="http://www.w3.org/1999/xlink" x="0px" y="0px"
	 viewBox="0 0 492.6 492.6" style="enable-background:new 0 0 492.6 492.6;" xml:space="preserve">
<style type="text/css">
	.st0{fill:#39FF14;}
	.st1{fill:#FFFFFF;}
</style>
<g>
	<path d="M445.6,246.3c0-53.2-20.7-103.3-58.4-140.9C349.6,67.7,299.5,47,246.3,47S143,67.7,105.4,105.4C67.7,143,47,193.1,47,246.3
		c0,53.2,20.7,103.3,58.4,140.9c37.6,37.6,87.7,58.4,140.9,58.4s103.3-20.7,140.9-58.4C424.9,349.6,445.6,299.5,445.6,246.3z"/>
	<path class="st0" d="M246.3,0C110.3,0,0,110.3,0,246.3s110.3,246.3,246.3,246.3c136,0,246.3-110.3,246.3-246.3S382.3,0,246.3,0z
		 M105.4,387.2C67.7,349.6,47,299.5,47,246.3c0-53.2,20.7-103.3,58.4-140.9C143,67.7,193.1,47,246.3,47s103.3,20.7,140.9,58.4
		c37.6,37.6,58.4,87.7,58.4,140.9c0,53.2-20.7,103.3-58.4,140.9c-37.6,37.6-87.7,58.4-140.9,58.4S143,424.9,105.4,387.2z"/>
</g>
<path class="st1" d="M175.4,131.1c-5.7,11-9.5,28.5-9.5,48.1v6.5h-24.7v33.9h24.7v24.8h-24.7v33.9h24.7v48.3c0,6.3-0.6,14.8-6,17.1
	c-3.2,1.4-8.6,2-16.5,2h-2.2V372h92.6v-26.4c-7.4,0-12.1-1.1-14.7-3.5c-2.8-2.5-4.1-7.2-4.1-14.7V219.5h48.9
	c7.7,0,12.4,1.4,14.9,4.4c2.3,2.8,3.4,8.1,3.4,16.5v86.9c0,7.3-1.3,12.1-3.9,14.6c-2.6,2.6-7.2,3.7-14.4,3.7H263V372h88.4v-26.4
	h-1.5c-7.4,0-12.1-1.1-14.9-3.6c-2.8-2.5-4.2-7.3-4.2-14.6V185.7H215v-5c0-20.6,4.1-36.3,10.7-44.2c6.5-7.8,16.2-11.8,28.6-11.8
	c8.9,0,18.7,2.2,23.7,6.4c4.8,4.1,7.4,10.7,7.6,19.4H322v-39.2c-10.2-5.3-20.8-9.3-31.5-11.8c-11.2-2.6-26.1-3.9-38.8-3.9
	c-17.9,0-34,3.2-47.7,9.6C190.6,111.5,180.9,120.2,175.4,131.1z"/>
</svg>
