<svg id="Layer_1" data-name="Layer 1" xmlns="http://www.w3.org/2000/svg" viewBox="0 0 1661.01 1900"><defs><style>.cls-1{fill:gray;}.cls-2{fill:#2ecc40;}</style></defs><path class="cls-1" d="M1029.37,586.79c-14.15-7.55-26.21-7.75-28.91-7.75a61,61,0,0,0-28.92,7.75l-218,125.87,830.05,479.23,246.94,142.57V1082.64a57.84,57.84,0,0,0-28.85-50C1366.31,780.29,1050.51,598.06,1029.37,586.79ZM198.44,1496.2l772.53,446a58.07,58.07,0,0,0,58.06,0L1704.91,1552l-247-142.57-458,264.41-830.5-479.5v251.73A57.88,57.88,0,0,0,198.44,1496.2Z" transform="translate(-169.5 -50)"/><path class="cls-2" d="M970.63,1413.21c14.15,7.55,26.21,7.75,28.91,7.75a61,61,0,0,0,28.92-7.75l218-125.87-830-479.23L169.5,665.54V917.36a57.84,57.84,0,0,0,28.85,50C633.69,1219.71,949.49,1401.94,970.63,1413.21Z" transform="translate(-169.5 -50)"/><path class="cls-2" d="M1830.5,553.93V805.66L1000,326.16,542,590.57,295.09,448,971,57.78a58.07,58.07,0,0,1,58.06,0l772.53,446A57.88,57.88,0,0,1,1830.5,553.93Z" transform="translate(-169.5 -50)"/></svg>