<svg id="Layer_1" data-name="Layer 1" xmlns="http://www.w3.org/2000/svg" viewBox="0 0 1800 2880"><defs><style>.cls-1{fill:#fff;}</style></defs><rect x="-540" y="540" width="2880" height="1800" transform="translate(2340 540) rotate(90)"/><path class="cls-1" d="M1364.73,935.19v140.86L900,807.74l-256.26,148L505.55,875.91,883.76,657.56a32.44,32.44,0,0,1,32.48,0l432.29,249.58A32.39,32.39,0,0,1,1364.73,935.19ZM916.44,953.57a35.1,35.1,0,0,0-16.19-4.33,34.11,34.11,0,0,0-16.18,4.33l-122,70.44,464.47,268.16L1364.73,1372V1231a32.38,32.38,0,0,0-16.15-28C1105,1061.86,928.27,959.88,916.44,953.57Zm-465,508.89L883.76,1712a32.49,32.49,0,0,0,32.48,0l378.21-218.36-138.19-79.78L900,1561.86,435.27,1293.55v140.86A32.4,32.4,0,0,0,451.47,1462.46ZM883.56,1416a35.17,35.17,0,0,0,16.19,4.34,34.11,34.11,0,0,0,16.18-4.34l122-70.44L573.46,1077.42,435.27,997.64v140.92a32.38,32.38,0,0,0,16.15,28C695,1307.74,871.73,1409.72,883.56,1416Z"/><path class="cls-1" d="M883.56,1416a35.17,35.17,0,0,0,16.19,4.34,34.11,34.11,0,0,0,16.18-4.34l122-70.44L573.46,1077.42,435.27,997.64v140.92a32.38,32.38,0,0,0,16.15,28C695,1307.74,871.73,1409.72,883.56,1416Z"/><path class="cls-1" d="M1364.73,935.19v140.86L900,807.74l-256.26,148L505.55,875.91,883.76,657.56a32.44,32.44,0,0,1,32.48,0l432.29,249.58A32.39,32.39,0,0,1,1364.73,935.19Z"/><path class="cls-1" d="M534.36,2219.94l-56.57-95.57-55.71,95.57H332.93l106.29-157.29-104.14-147h92.14l56.14,88.72,53.57-88.72h88.29L521.5,2063.94l106.29,156Z"/><path class="cls-1" d="M612.5,2121.37h79.28c1.72,31.71,21.86,46.71,54,46.71,27.43,0,49.72-9.85,49.72-32.57,0-21.86-17.57-29.14-71.57-43.71-52.29-13.72-102.86-26.57-102.86-90.86,0-63.86,60.86-92.14,123-92.14,65.14,0,122.14,25.71,124.71,94.71H789.93c-2.57-24.86-22.29-36-47.58-36-21.42,0-42.85,9.86-42.85,28.29,0,19.28,21.43,24.43,56.57,33,71.14,16.71,121.29,38.57,121.29,102,0,71.57-65.15,96-135.43,96C690.07,2226.8,613.78,2209.65,612.5,2121.37Z"/><path class="cls-1" d="M889.35,2067.8c0-88.72,47.57-159,150.43-159,66,0,127.72,38.57,135,117.43h-79.71c-3.86-36.43-24-52.72-56.57-52.72-45.86,0-66.43,38.57-66.43,94.29s20.57,94.28,66.43,94.28c32.57,0,52.71-16.28,56.57-52.71h79.71c-7.28,78.86-69,117.43-135,117.43C936.92,2226.8,889.35,2156.51,889.35,2067.8Z"/><path class="cls-1" d="M1316.64,2114.51h-36.43v105.43h-81.86V1915.65h146.57c71.15,0,113.15,40.72,113.15,102,0,44.58-23.15,75-63.86,88.72l72.86,113.57h-87.43Zm-36.43-57.86h48c28.71,0,51.43-7.71,51.43-37.71,0-31.71-19.29-38.57-51.43-38.57h-48Z"/></svg>