<svg id="Layer_1" data-name="Layer 1" xmlns="http://www.w3.org/2000/svg" viewBox="0 0 1800 2880"><defs><style>.cls-1{fill:gray;}.cls-2{fill:#2ecc40;}</style></defs><path class="cls-1" d="M1320.92,980.53V1107L903.75,866.12l-230,132.82-124-71.62,339.5-196a29.15,29.15,0,0,1,29.16,0l388.05,224A29.08,29.08,0,0,1,1320.92,980.53ZM918.5,997a31.55,31.55,0,0,0-14.52-3.9,30.64,30.64,0,0,0-14.53,3.9l-109.51,63.22L1196.87,1301l124.05,71.62V1246.1a29,29,0,0,0-14.5-25.13C1087.75,1094.24,929.12,1002.7,918.5,997Zm-417.38,456.8,388,224a29.15,29.15,0,0,0,29.16,0l339.5-196-124-71.62-230,132.82L486.58,1302.22v126.44A29.08,29.08,0,0,0,501.12,1453.84ZM889,1412.15a31.58,31.58,0,0,0,14.53,3.9,30.64,30.64,0,0,0,14.53-3.9l109.51-63.22L610.62,1108.21l-124-71.62v126.5a29,29,0,0,0,14.5,25.13C719.75,1315,878.38,1406.49,889,1412.15Z"/><path class="cls-2" d="M889,1412.15a31.58,31.58,0,0,0,14.53,3.9,30.64,30.64,0,0,0,14.53-3.9l109.51-63.22L610.62,1108.21l-124-71.62v126.5a29,29,0,0,0,14.5,25.13C719.75,1315,878.38,1406.49,889,1412.15Z"/><path class="cls-2" d="M1320.92,980.53V1107L903.75,866.12l-230,132.82-124-71.62,339.5-196a29.15,29.15,0,0,1,29.16,0l388.05,224A29.08,29.08,0,0,1,1320.92,980.53Z"/><path d="M550.09,1841.45l-84,304.29H387.66L344.38,1960.6l-43.29,185.14H222.66l-84-304.29h84l37.72,193.29h.85l47.15-193.29h72l46.71,193.29H428l38.14-193.29Z"/><path d="M736.13,2145.74l-56.57-95.57-55.72,95.57H534.7L641,1988.45l-104.15-147H629l56.14,88.72,53.57-88.72H827L723.27,1989.74l106.29,156Z"/><path d="M814.27,2047.17h79.28c1.72,31.71,21.86,46.71,54,46.71,27.43,0,49.72-9.86,49.72-32.57,0-21.86-17.57-29.14-71.57-43.72-52.29-13.71-102.86-26.57-102.86-90.85,0-63.86,60.86-92.15,123-92.15,65.14,0,122.14,25.72,124.71,94.72H991.7c-2.58-24.86-22.29-36-47.58-36-21.42,0-42.85,9.86-42.85,28.29,0,19.28,21.43,24.42,56.57,33,71.14,16.72,121.28,38.58,121.28,102,0,71.58-65.14,96-135.42,96C891.84,2152.59,815.55,2135.45,814.27,2047.17Z"/><path d="M1091.12,1993.59c0-88.71,47.57-159,150.43-159,66,0,127.71,38.58,135,117.43h-79.71c-3.86-36.43-24-52.71-56.58-52.71-45.85,0-66.42,38.57-66.42,94.28s20.57,94.29,66.42,94.29c32.58,0,52.72-16.29,56.58-52.71h79.71c-7.29,78.85-69,117.42-135,117.42C1138.69,2152.59,1091.12,2082.31,1091.12,1993.59Z"/><path d="M1518.41,2040.31H1482v105.43h-81.86V1841.45h146.57c71.15,0,113.15,40.72,113.15,102,0,44.57-23.15,75-63.86,88.72l72.86,113.57h-87.43ZM1482,1982.45h48c28.71,0,51.43-7.71,51.43-37.71,0-31.72-19.29-38.57-51.43-38.57h-48Z"/></svg>