<?xml version="1.0" encoding="utf-8"?>
<!-- Generator: Adobe Illustrator 24.2.1, SVG Export Plug-In . SVG Version: 6.00 Build 0)  -->
<svg version="1.1" id="Layer_1" xmlns="http://www.w3.org/2000/svg" xmlns:xlink="http://www.w3.org/1999/xlink" x="0px" y="0px"
	 viewBox="0 0 2880 1800" style="enable-background:new 0 0 2880 1800;" xml:space="preserve">
<style type="text/css">
	.st0{fill:#808080;}
	.st1{fill:#E52442;}
</style>
<g>
	<path class="st0" d="M908.2,721v101L574.8,629.5L391,735.7l-99.1-57.2l271.3-156.6c7.2-4.2,16.1-4.2,23.3,0l310.1,179
		C903.8,705,908.2,712.7,908.2,721z M586.6,734.1c-3.6-2-7.5-3.1-11.6-3.2c-4.1,0.1-8.1,1.1-11.6,3.1l-87.5,50.5L809,977l99.1,57.2
		v-101c0-8.3-4.4-15.9-11.6-20.1C721.8,811.8,595.1,738.7,586.6,734.1z M253.1,1099.1l310.1,179c7.2,4.2,16.1,4.2,23.3,0
		l271.3-156.6l-99.1-57.2l-183.8,106.2L241.5,978v101C241.5,1087.3,245.9,1095,253.1,1099.1L253.1,1099.1z M563,1065.8
		c3.6,2,7.5,3,11.6,3.1c4.1-0.1,8.1-1.1,11.6-3.1l87.5-50.5L340.6,823l-99.1-57.2v101c0,8.3,4.4,15.9,11.6,20.1
		C427.8,988.2,554.5,1061.3,563,1065.8z"/>
	<g>
		<path class="st1" d="M563,1065.8c3.6,2,7.5,3,11.6,3.1c4.1-0.1,8.1-1.1,11.6-3.1l87.5-50.5L340.6,823l-99.1-57.2v101
			c0,8.3,4.4,15.9,11.6,20.1C427.8,988.2,554.5,1061.3,563,1065.8z"/>
		<path class="st1" d="M908.2,721v101L574.8,629.5L391,735.7l-99.1-57.2l271.3-156.6c7.2-4.2,16.1-4.2,23.3,0l310.1,179
			C903.8,705,908.2,712.7,908.2,721z"/>
	</g>
</g>
<g>
	<path d="M1346.2,1106.7l-76.8-129.8l-75.7,129.8h-121.1L1217,893l-141.5-199.7h125.2l76.2,120.5l72.8-120.5h119.9l-140.9,201.4
		l144.4,211.9H1346.2z"/>
	<path d="M1453.2,972.8h107.7c2.3,43.1,29.7,63.4,73.3,63.4c37.2,0,67.5-13.4,67.5-44.2c0-29.7-23.9-39.6-97.2-59.4
		c-71-18.6-139.7-36.1-139.7-123.4c0-86.7,82.7-125.2,167.1-125.2c88.5,0,165.9,34.9,169.4,128.6h-107.1
		c-3.5-33.8-30.3-48.9-64.6-48.9c-29.1,0-58.2,13.4-58.2,38.4c0,26.2,29.1,33.2,76.8,44.8c96.6,22.7,164.7,52.4,164.7,138.5
		c0,97.2-88.5,130.4-184,130.4C1558.6,1116,1454.9,1092.7,1453.2,972.8z"/>
	<path d="M1829.2,900c0-120.5,64.6-216,204.3-216c89.6,0,173.5,52.4,183.4,159.5h-108.3c-5.2-49.5-32.6-71.6-76.8-71.6
		c-62.3,0-90.2,52.4-90.2,128.1s27.9,128.1,90.2,128.1c44.2,0,71.6-22.1,76.8-71.6h108.3c-9.9,107.1-93.7,159.5-183.4,159.5
		C1893.8,1116,1829.2,1020.5,1829.2,900z"/>
	<path d="M2409.6,963.5h-49.5v143.2h-111.2V693.4H2448c96.6,0,153.7,55.3,153.7,138.5c0,60.5-31.4,101.9-86.7,120.5l99,154.3h-118.8
		L2409.6,963.5z M2360.1,884.9h65.2c39,0,69.9-10.5,69.9-51.2c0-43.1-26.2-52.4-69.9-52.4h-65.2V884.9z"/>
</g>
</svg>
