<svg id="Layer_1" data-name="Layer 1" xmlns="http://www.w3.org/2000/svg" viewBox="0 0 2880 1800"><defs><style>.cls-1{fill:gray;}.cls-2{fill:#ff073a;}.cls-3{fill:#fff;}</style></defs><path class="cls-1" d="M468.29,764a20.68,20.68,0,0,0-9.5-2.65,20.09,20.09,0,0,0-9.55,2.45L377,804.48,648.75,965.26l80.85,47.84.89-83a19.07,19.07,0,0,0-9.33-16.59C578.62,828.9,475.22,767.76,468.29,764ZM191.36,1060.66,444.3,1210.31a19.12,19.12,0,0,0,19.13.2l224-126.18-80.85-47.84L454.81,1122,182.88,961.12l-.88,82.93A19.08,19.08,0,0,0,191.36,1060.66Z"/><path class="cls-2" d="M446,1036a20.46,20.46,0,0,0,9.5,2.65,20,20,0,0,0,9.56-2.45l72.27-40.7L265.59,834.74,184.74,786.9l-.89,83a19.07,19.07,0,0,0,9.33,16.58C335.72,971.1,439.12,1032.24,446,1036Z"/><path class="cls-2" d="M732.34,756l-.88,82.93L459.53,678l-151.8,85.5-80.85-47.83,224-126.19a19.12,19.12,0,0,1,19.13.2L723,739.34A19.08,19.08,0,0,1,732.34,756Z"/><path class="cls-3" d="M863.43,973.16h67.34c-.53,37.12,19.08,57.79,50.36,57.79,30.22,0,48.25-20.67,48.25-42.94,0-20.15-10.61-32.34-32.34-43.47l-54.61-28.63c-44.53-23.33-74.75-58.85-74.75-104.45,0-63.09,48.77-107.62,114.51-107.62,68.92,0,114.52,43.47,114.52,116.64h-67.33c-1.06-33.93-18.56-51.43-46.66-51.43-30.75,0-42.94,20.15-42.94,39.23,0,21.21,13.25,31.81,36.05,43.48l57.26,29.69c41.88,21.73,68.39,57.25,68.39,101.26,0,59.38-46.66,113.45-120.35,113.45C906.91,1096.16,861.84,1043.15,863.43,973.16Z"/><path class="cls-3" d="M1206,774.35v86.42h138.37V926H1206v99.67h149.5v65.21H1137.09V709.14h218.42v65.21Z"/><path class="cls-3" d="M1384.72,986.42V810.93c0-63.62,46.65-107.09,114-107.09,68.39,0,114,42.41,114,117.7h-68.92c0-32.34-15.91-52.49-45.07-52.49s-45.06,18-45.06,49.84V981.12c0,31.81,15.9,49.83,45.06,49.83,32.34,0,45.07-22.79,45.07-54.6h68.92c0,74.22-44.54,119.81-114,119.81C1431.37,1096.16,1384.72,1051.63,1384.72,986.42Z"/><path class="cls-3" d="M1653,986.42V709.14h68.92v272c0,31.81,15.91,49.83,45.07,49.83s45.06-18,45.06-49.83v-272H1881V987c0,64.68-46.65,109.21-114,109.21S1653,1051.63,1653,986.42Z"/><path class="cls-3" d="M2032.62,945.07h-35v145.79h-68.92V709.14h118.22c63.62,0,108.69,45.07,108.69,110.28v15.37c0,44.54-23.33,79.53-57.26,97.55l75.81,158.52H2100Zm-35-65.21h40.29c32.34,0,48.78-17.5,48.78-47.72V822.07c0-30.22-16.44-47.72-48.78-47.72h-40.29Z"/><path class="cls-3" d="M2195.91,986.42V709.14h68.92v272c0,31.81,15.9,49.83,45.06,49.83s45.07-18,45.07-49.83v-272h68.92V987c0,64.68-46.66,109.21-114,109.21S2195.91,1051.63,2195.91,986.42Z"/><path class="cls-3" d="M2460,973.16h67.33c-.53,37.12,19.08,57.79,50.36,57.79,30.22,0,48.25-20.67,48.25-42.94,0-20.15-10.61-32.34-32.34-43.47L2539,915.91c-44.53-23.33-74.75-58.85-74.75-104.45,0-63.09,48.77-107.62,114.51-107.62,68.92,0,114.52,43.47,114.52,116.64H2625.9c-1.06-33.93-18.56-51.43-46.66-51.43-30.75,0-42.94,20.15-42.94,39.23,0,21.21,13.25,31.81,36,43.48l57.26,29.69c41.88,21.73,68.39,57.25,68.39,101.26,0,59.38-46.65,113.45-120.35,113.45C2503.43,1096.16,2458.36,1043.15,2460,973.16Z"/></svg>