<svg id="Layer_1" data-name="Layer 1" xmlns="http://www.w3.org/2000/svg" viewBox="0 0 1800 2880"><defs><style>.cls-1{fill:gray;}.cls-2{fill:#2ecc40;}.cls-3{fill:#fff;}</style></defs><rect x="-540" y="540" width="2880" height="1800" transform="translate(2340 540) rotate(90)"/><path class="cls-1" d="M1368.48,861v140.86L903.75,733.53l-256.26,148L509.3,801.71,887.51,583.35a32.49,32.49,0,0,1,32.48,0l432.29,249.58A32.41,32.41,0,0,1,1368.48,861ZM920.19,879.37A35.1,35.1,0,0,0,904,875a34.11,34.11,0,0,0-16.18,4.33l-122,70.44L1230.29,1218l138.19,79.78V1156.84a32.36,32.36,0,0,0-16.15-28C1108.73,987.65,932,885.68,920.19,879.37Zm-465,508.89,432.29,249.58a32.49,32.49,0,0,0,32.48,0l378.21-218.36L1160,1339.7l-256.26,148L439,1219.34V1360.2A32.41,32.41,0,0,0,455.22,1388.26Zm432.09-46.44a35.1,35.1,0,0,0,16.18,4.33,34.12,34.12,0,0,0,16.19-4.33l122-70.44L577.21,1003.22,439,923.44v140.91a32.36,32.36,0,0,0,16.15,28C698.77,1233.54,875.48,1335.51,887.31,1341.82Z"/><path class="cls-2" d="M887.31,1341.82a35.1,35.1,0,0,0,16.18,4.33,34.12,34.12,0,0,0,16.19-4.33l122-70.44L577.21,1003.22,439,923.44v140.91a32.36,32.36,0,0,0,16.15,28C698.77,1233.54,875.48,1335.51,887.31,1341.82Z"/><path class="cls-2" d="M1368.48,861v140.86L903.75,733.53l-256.26,148L509.3,801.71,887.51,583.35a32.49,32.49,0,0,1,32.48,0l432.29,249.58A32.41,32.41,0,0,1,1368.48,861Z"/><path class="cls-3" d="M550.09,1841.45l-84,304.29H387.66L344.38,1960.6l-43.29,185.14H222.66l-84-304.29h84l37.72,193.29h.85l47.15-193.29h72l46.71,193.29H428l38.14-193.29Z"/><path class="cls-3" d="M736.13,2145.74l-56.57-95.57-55.72,95.57H534.7L641,1988.45l-104.15-147H629l56.14,88.72,53.57-88.72H827L723.27,1989.74l106.29,156Z"/><path class="cls-3" d="M814.27,2047.17h79.28c1.72,31.71,21.86,46.71,54,46.71,27.43,0,49.72-9.86,49.72-32.57,0-21.86-17.57-29.14-71.57-43.72-52.29-13.71-102.86-26.57-102.86-90.85,0-63.86,60.86-92.15,123-92.15,65.14,0,122.14,25.72,124.71,94.72H991.7c-2.58-24.86-22.29-36-47.58-36-21.42,0-42.85,9.86-42.85,28.29,0,19.28,21.43,24.42,56.57,33,71.14,16.72,121.28,38.58,121.28,102,0,71.58-65.14,96-135.42,96C891.84,2152.59,815.55,2135.45,814.27,2047.17Z"/><path class="cls-3" d="M1091.12,1993.59c0-88.71,47.57-159,150.43-159,66,0,127.71,38.58,135,117.43h-79.71c-3.86-36.43-24-52.71-56.58-52.71-45.85,0-66.42,38.57-66.42,94.28s20.57,94.29,66.42,94.29c32.58,0,52.72-16.29,56.58-52.71h79.71c-7.29,78.85-69,117.42-135,117.42C1138.69,2152.59,1091.12,2082.31,1091.12,1993.59Z"/><path class="cls-3" d="M1518.41,2040.31H1482v105.43h-81.86V1841.45h146.57c71.15,0,113.15,40.72,113.15,102,0,44.57-23.15,75-63.86,88.72l72.86,113.57h-87.43ZM1482,1982.45h48c28.71,0,51.43-7.71,51.43-37.71,0-31.72-19.29-38.57-51.43-38.57h-48Z"/></svg>