<svg id="Layer_1" data-name="Layer 1" xmlns="http://www.w3.org/2000/svg" viewBox="0 0 1800 2880"><defs><style>.cls-1{fill:gray;}.cls-2{fill:#ff073a;}</style></defs><path class="cls-1" d="M905.44,1033.51a29,29,0,0,0-13.35-3.73,28.1,28.1,0,0,0-13.43,3.45l-101.6,57.22,382.08,226,113.67,67.25,1.24-116.63a26.79,26.79,0,0,0-13.12-23.32C1060.54,1124.8,915.18,1038.84,905.44,1033.51ZM516.11,1450.62,871.72,1661a26.91,26.91,0,0,0,26.89.29l314.95-177.4-113.67-67.25-213.41,120.2L504.2,1310.67,503,1427.26A26.84,26.84,0,0,0,516.11,1450.62Z"/><path class="cls-2" d="M874.16,1416a29.2,29.2,0,0,0,13.36,3.73,28.13,28.13,0,0,0,13.43-3.45l101.6-57.22L620.47,1133,506.8,1065.75l-1.24,116.63a26.79,26.79,0,0,0,13.12,23.32C719.06,1324.7,864.43,1410.66,874.16,1416Z"/><path class="cls-2" d="M1276.65,1022.24l-1.24,116.59L893.12,912.66l-213.41,120.2L566,965.61l315-177.4a26.91,26.91,0,0,1,26.89.29l355.6,210.38A26.78,26.78,0,0,1,1276.65,1022.24Z"/><path d="M222,2004.33h49.77c-.39,27.43,14.11,42.72,37.23,42.72,22.34,0,35.66-15.29,35.66-31.75,0-14.89-7.84-23.9-23.9-32.13L280.37,1962c-32.92-17.25-55.25-43.5-55.25-77.21,0-46.63,36.05-79.55,84.64-79.55,50.95,0,84.65,32.14,84.65,86.22H344.64c-.78-25.08-13.71-38-34.48-38-22.73,0-31.75,14.9-31.75,29,0,15.68,9.8,23.52,26.65,32.14l42.33,21.94c30.95,16.07,50.55,42.33,50.55,74.85,0,43.9-34.49,83.87-89,83.87C254.12,2095.25,220.81,2056.06,222,2004.33Z"/><path d="M475.2,1857.37v63.88H577.49v48.2H475.2v73.68H585.72v48.2H424.26V1809.17H585.72v48.2Z"/><path d="M607.3,2014.13V1884.41c0-47,34.49-79.16,84.26-79.16,50.55,0,84.25,31.35,84.25,87H724.87c0-23.9-11.76-38.8-33.31-38.8s-33.31,13.33-33.31,36.84v119.92c0,23.51,11.75,36.84,33.31,36.84,23.9,0,33.31-16.86,33.31-40.37h50.94c0,54.87-32.92,88.57-84.25,88.57C641.79,2095.25,607.3,2062.33,607.3,2014.13Z"/><path d="M805.63,2014.13v-205h50.94v201c0,23.51,11.76,36.84,33.31,36.84s33.31-13.33,33.31-36.84v-201h50.95v205.35c0,47.81-34.49,80.73-84.26,80.73S805.63,2062.33,805.63,2014.13Z"/><path d="M1086.22,1983.56h-25.87v107.77h-50.94V1809.17h87.39c47,0,80.33,33.31,80.33,81.51v11.37c0,32.92-17.24,58.78-42.32,72.1l56,117.18H1136Zm-25.87-48.2h29.79c23.9,0,36-12.93,36-35.27v-7.45c0-22.34-12.15-35.27-36-35.27h-29.79Z"/><path d="M1206.91,2014.13v-205h50.95v201c0,23.51,11.76,36.84,33.31,36.84s33.31-13.33,33.31-36.84v-201h51v205.35c0,47.81-34.49,80.73-84.26,80.73S1206.91,2062.33,1206.91,2014.13Z"/><path d="M1402.09,2004.33h49.77c-.39,27.43,14.11,42.72,37.23,42.72,22.34,0,35.67-15.29,35.67-31.75,0-14.89-7.84-23.9-23.91-32.13L1460.49,1962c-32.92-17.25-55.26-43.5-55.26-77.21,0-46.63,36-79.55,84.65-79.55,50.94,0,84.64,32.14,84.64,86.22h-49.76c-.79-25.08-13.72-38-34.49-38-22.73,0-31.74,14.9-31.74,29,0,15.68,9.79,23.52,26.64,32.14l42.33,21.94c31,16.07,50.55,42.33,50.55,74.85,0,43.9-34.48,83.87-89,83.87C1434.23,2095.25,1400.92,2056.06,1402.09,2004.33Z"/></svg>